# xmcd
#
# Track frame offsets: 
#        150
#        17011
#        36394
#        57971
#        74059
#        96416
#        114482
#        130611
#        149067
#        170028
#        189298
#        208109
#        226913
#
# Disc length: 3254 seconds
#
# Revision: 1
# Processed by: cddbd v1.5.2PL0 Copyright (c) Steve Scherf et al.
# Submitted via: ExactAudioCopyFreeDBPlugin 1.0
#
DISCID=c40cb40d
DTITLE=常安 - 非常安靜（DSD）
DYEAR=2006
DGENRE=Pop
TTITLE0=心上人像達瑪花
TTITLE1=偶然
TTITLE2=那些花兒
TTITLE3=百裡香
TTITLE4=情人的眼淚 
TTITLE5=九月的故事
TTITLE6=我是一片雲
TTITLE7=追夢人
TTITLE8=漂洋過海來看你
TTITLE9=船歌
TTITLE10=我有一段情
TTITLE11=燭光裡的媽媽
TTITLE12=豐收歌-麥浪滾滾閃金光
EXTD=
EXTT0=
EXTT1=
EXTT2=
EXTT3=
EXTT4=
EXTT5=
EXTT6=
EXTT7=
EXTT8=
EXTT9=
EXTT10=
EXTT11=
EXTT12=
PLAYORDER=
